# xmcd CD database file
#
# Track frame offsets:
#	150
#	22141
#	68058
#	120080
#	135532
#	154708
#	169051
#	185904
#	204798
#	215777
#	234287
#
# Disc length: 3391 seconds
#
# Revision: 0
# Processed by: cddbd v1.5.1PL2 Copyright (c) Steve Scherf et al.
# Submitted via: CDex 1.70beta2
#
DISCID=930d3d0b
DTITLE=Michel Petrucciani - Live in Germany
DYEAR=1978
DGENRE=Jazz
TTITLE0=Looking up
TTITLE1=Bésame mucho
TTITLE2=Rachid
TTITLE3=Chloé meets Gershwin
TTITLE4=Home
TTITLE5=Brazilian like
TTITLE6=Little piece in C for U
TTITLE7=Romantic but not blue
TTITLE8=Trilogy in Blois (Morning sun, noon sun and night sun in Blois)
TTITLE9=Caravan
TTITLE10=She did it again - Take the A train - She did it again 
EXTD=YEAR: 1978
EXTT0=
EXTT1=
EXTT2=
EXTT3=
EXTT4=
EXTT5=
EXTT6=
EXTT7=
EXTT8=
EXTT9=
EXTT10=
PLAYORDER=
